<mxfile host="Electron" agent="Mozilla/5.0 (Windows NT 10.0; Win64; x64) AppleWebKit/537.36 (KHTML, like Gecko) draw.io/26.1.1 Chrome/132.0.6834.210 Electron/34.3.3 Safari/537.36" version="26.1.1">
  <diagram name="Pagina-1" id="KEvrwaT-HObtfod91psO">
    <mxGraphModel dx="2585" dy="1278" grid="1" gridSize="10" guides="1" tooltips="1" connect="1" arrows="1" fold="1" page="1" pageScale="1" pageWidth="827" pageHeight="1169" math="0" shadow="0">
      <root>
        <mxCell id="0" />
        <mxCell id="1" parent="0" />
        <mxCell id="ZOWS72K-DNHoaBLq7NLi-3" value="" style="rounded=1;whiteSpace=wrap;html=1;" parent="1" vertex="1">
          <mxGeometry x="44" y="75" width="320" height="230" as="geometry" />
        </mxCell>
        <mxCell id="ZOWS72K-DNHoaBLq7NLi-2" value="&lt;font style=&quot;font-size: 14px;&quot;&gt;Segnala un Issue&lt;/font&gt;" style="labelPosition=center;verticalLabelPosition=middle;align=center;html=1;shape=mxgraph.basic.button;dx=10;whiteSpace=wrap;" parent="1" vertex="1">
          <mxGeometry x="136.5" y="152.5" width="135" height="75" as="geometry" />
        </mxCell>
        <mxCell id="ZOWS72K-DNHoaBLq7NLi-4" value="&lt;font style=&quot;font-size: 18px;&quot;&gt;M0&lt;/font&gt;" style="text;html=1;align=center;verticalAlign=middle;resizable=0;points=[];autosize=1;strokeColor=none;fillColor=none;" parent="1" vertex="1">
          <mxGeometry x="174" y="40" width="50" height="40" as="geometry" />
        </mxCell>
        <mxCell id="ZOWS72K-DNHoaBLq7NLi-5" value="" style="rounded=1;whiteSpace=wrap;html=1;" parent="1" vertex="1">
          <mxGeometry x="474" y="75" width="310" height="230" as="geometry" />
        </mxCell>
        <mxCell id="ZOWS72K-DNHoaBLq7NLi-7" value="&lt;font style=&quot;font-size: 18px;&quot;&gt;M1&lt;/font&gt;" style="text;html=1;align=center;verticalAlign=middle;resizable=0;points=[];autosize=1;strokeColor=none;fillColor=none;" parent="1" vertex="1">
          <mxGeometry x="604" y="40" width="50" height="40" as="geometry" />
        </mxCell>
        <mxCell id="ZOWS72K-DNHoaBLq7NLi-8" value="&lt;font style=&quot;font-size: 14px;&quot;&gt;Segnala un issue&lt;/font&gt;" style="text;html=1;align=center;verticalAlign=middle;whiteSpace=wrap;rounded=0;" parent="1" vertex="1">
          <mxGeometry x="539" y="85" width="180" height="20" as="geometry" />
        </mxCell>
        <mxCell id="ZOWS72K-DNHoaBLq7NLi-9" value="Titolo:" style="text;html=1;align=center;verticalAlign=middle;whiteSpace=wrap;rounded=0;" parent="1" vertex="1">
          <mxGeometry x="524" y="120" width="60" height="30" as="geometry" />
        </mxCell>
        <mxCell id="ZOWS72K-DNHoaBLq7NLi-10" value="Descrizione:" style="text;html=1;align=center;verticalAlign=middle;whiteSpace=wrap;rounded=0;" parent="1" vertex="1">
          <mxGeometry x="524" y="155" width="60" height="30" as="geometry" />
        </mxCell>
        <mxCell id="ZOWS72K-DNHoaBLq7NLi-11" value="Priorità" style="labelPosition=center;verticalLabelPosition=middle;align=center;html=1;shape=mxgraph.basic.button;dx=10;whiteSpace=wrap;" parent="1" vertex="1">
          <mxGeometry x="494" y="195" width="120" height="40" as="geometry" />
        </mxCell>
        <mxCell id="ZOWS72K-DNHoaBLq7NLi-12" value="Immagine" style="labelPosition=center;verticalLabelPosition=middle;align=center;html=1;shape=mxgraph.basic.button;dx=10;whiteSpace=wrap;" parent="1" vertex="1">
          <mxGeometry x="494" y="245" width="120" height="40" as="geometry" />
        </mxCell>
        <mxCell id="ZOWS72K-DNHoaBLq7NLi-13" value="" style="rounded=0;whiteSpace=wrap;html=1;" parent="1" vertex="1">
          <mxGeometry x="624" y="127.5" width="140" height="15" as="geometry" />
        </mxCell>
        <mxCell id="ZOWS72K-DNHoaBLq7NLi-14" value="" style="rounded=0;whiteSpace=wrap;html=1;" parent="1" vertex="1">
          <mxGeometry x="624" y="162.5" width="140" height="72.5" as="geometry" />
        </mxCell>
        <mxCell id="ZOWS72K-DNHoaBLq7NLi-16" value="Segnala" style="labelPosition=center;verticalLabelPosition=middle;align=center;html=1;shape=mxgraph.basic.button;dx=10;whiteSpace=wrap;" parent="1" vertex="1">
          <mxGeometry x="694" y="245" width="70" height="40" as="geometry" />
        </mxCell>
        <mxCell id="ZOWS72K-DNHoaBLq7NLi-17" value="↩️" style="labelPosition=center;verticalLabelPosition=middle;align=center;html=1;shape=mxgraph.basic.button;dx=10;whiteSpace=wrap;" parent="1" vertex="1">
          <mxGeometry x="654" y="245" width="40" height="40" as="geometry" />
        </mxCell>
        <mxCell id="ZOWS72K-DNHoaBLq7NLi-18" value="" style="rounded=1;whiteSpace=wrap;html=1;" parent="1" vertex="1">
          <mxGeometry x="49" y="375" width="310" height="230" as="geometry" />
        </mxCell>
        <mxCell id="ZOWS72K-DNHoaBLq7NLi-19" value="&lt;font style=&quot;font-size: 18px;&quot;&gt;M2&lt;/font&gt;" style="text;html=1;align=center;verticalAlign=middle;resizable=0;points=[];autosize=1;strokeColor=none;fillColor=none;" parent="1" vertex="1">
          <mxGeometry x="174" y="335" width="50" height="40" as="geometry" />
        </mxCell>
        <mxCell id="ZOWS72K-DNHoaBLq7NLi-20" value="&lt;font style=&quot;font-size: 24px;&quot;&gt;L&#39;issue è stato segnalato correttamente!&lt;/font&gt;" style="text;html=1;align=center;verticalAlign=middle;whiteSpace=wrap;rounded=0;" parent="1" vertex="1">
          <mxGeometry x="64" y="405" width="280" height="100" as="geometry" />
        </mxCell>
        <mxCell id="ZOWS72K-DNHoaBLq7NLi-21" value="&lt;font style=&quot;font-size: 18px;&quot;&gt;Ok&lt;/font&gt;" style="labelPosition=center;verticalLabelPosition=middle;align=center;html=1;shape=mxgraph.basic.button;dx=10;whiteSpace=wrap;" parent="1" vertex="1">
          <mxGeometry x="146.5" y="515" width="115" height="60" as="geometry" />
        </mxCell>
        <mxCell id="ZOWS72K-DNHoaBLq7NLi-22" value="" style="rounded=1;whiteSpace=wrap;html=1;" parent="1" vertex="1">
          <mxGeometry x="474" y="375" width="310" height="230" as="geometry" />
        </mxCell>
        <mxCell id="ZOWS72K-DNHoaBLq7NLi-23" value="&lt;font style=&quot;font-size: 18px;&quot;&gt;M3&lt;/font&gt;" style="text;html=1;align=center;verticalAlign=middle;resizable=0;points=[];autosize=1;strokeColor=none;fillColor=none;" parent="1" vertex="1">
          <mxGeometry x="599" y="335" width="50" height="40" as="geometry" />
        </mxCell>
        <mxCell id="ZOWS72K-DNHoaBLq7NLi-26" value="" style="ellipse;whiteSpace=wrap;html=1;aspect=fixed;" parent="1" vertex="1">
          <mxGeometry x="504" y="405" width="40" height="40" as="geometry" />
        </mxCell>
        <mxCell id="ZOWS72K-DNHoaBLq7NLi-27" value="" style="ellipse;whiteSpace=wrap;html=1;aspect=fixed;" parent="1" vertex="1">
          <mxGeometry x="504" y="470" width="40" height="40" as="geometry" />
        </mxCell>
        <mxCell id="ZOWS72K-DNHoaBLq7NLi-28" value="" style="ellipse;whiteSpace=wrap;html=1;aspect=fixed;" parent="1" vertex="1">
          <mxGeometry x="504" y="535" width="40" height="40" as="geometry" />
        </mxCell>
        <mxCell id="ZOWS72K-DNHoaBLq7NLi-29" value="&lt;font style=&quot;font-size: 24px;&quot;&gt;Alta&lt;/font&gt;" style="text;html=1;align=center;verticalAlign=middle;whiteSpace=wrap;rounded=0;" parent="1" vertex="1">
          <mxGeometry x="574" y="410" width="60" height="30" as="geometry" />
        </mxCell>
        <mxCell id="ZOWS72K-DNHoaBLq7NLi-30" value="&lt;font style=&quot;font-size: 24px;&quot;&gt;Media&lt;/font&gt;" style="text;html=1;align=center;verticalAlign=middle;whiteSpace=wrap;rounded=0;" parent="1" vertex="1">
          <mxGeometry x="574" y="475" width="60" height="30" as="geometry" />
        </mxCell>
        <mxCell id="ZOWS72K-DNHoaBLq7NLi-31" value="&lt;font style=&quot;font-size: 24px;&quot;&gt;Bassa&lt;/font&gt;" style="text;html=1;align=center;verticalAlign=middle;whiteSpace=wrap;rounded=0;" parent="1" vertex="1">
          <mxGeometry x="574" y="540" width="60" height="30" as="geometry" />
        </mxCell>
        <mxCell id="ZOWS72K-DNHoaBLq7NLi-34" value="&lt;font style=&quot;font-size: 14px;&quot;&gt;Ok&lt;/font&gt;" style="labelPosition=center;verticalLabelPosition=middle;align=center;html=1;shape=mxgraph.basic.button;dx=10;whiteSpace=wrap;" parent="1" vertex="1">
          <mxGeometry x="694" y="430" width="50" height="50" as="geometry" />
        </mxCell>
        <mxCell id="ZOWS72K-DNHoaBLq7NLi-35" value="↩️" style="labelPosition=center;verticalLabelPosition=middle;align=center;html=1;shape=mxgraph.basic.button;dx=10;whiteSpace=wrap;" parent="1" vertex="1">
          <mxGeometry x="694" y="505" width="50" height="50" as="geometry" />
        </mxCell>
        <mxCell id="ZOWS72K-DNHoaBLq7NLi-36" value="" style="rounded=1;whiteSpace=wrap;html=1;" parent="1" vertex="1">
          <mxGeometry x="49" y="685" width="310" height="230" as="geometry" />
        </mxCell>
        <mxCell id="ZOWS72K-DNHoaBLq7NLi-37" value="&lt;font style=&quot;font-size: 18px;&quot;&gt;M4&lt;/font&gt;" style="text;html=1;align=center;verticalAlign=middle;resizable=0;points=[];autosize=1;strokeColor=none;fillColor=none;" parent="1" vertex="1">
          <mxGeometry x="174" y="645" width="50" height="40" as="geometry" />
        </mxCell>
        <mxCell id="ZOWS72K-DNHoaBLq7NLi-38" value="&lt;font style=&quot;font-size: 24px;&quot;&gt;Scegli allegato:&lt;/font&gt;" style="text;html=1;align=center;verticalAlign=middle;whiteSpace=wrap;rounded=0;" parent="1" vertex="1">
          <mxGeometry x="104" y="715" width="200" height="40" as="geometry" />
        </mxCell>
        <mxCell id="ZOWS72K-DNHoaBLq7NLi-39" value="&lt;font style=&quot;font-size: 18px;&quot;&gt;Sfoglia&lt;/font&gt;" style="labelPosition=center;verticalLabelPosition=middle;align=center;html=1;shape=mxgraph.basic.button;dx=10;whiteSpace=wrap;" parent="1" vertex="1">
          <mxGeometry x="154.62" y="765" width="98.75" height="50" as="geometry" />
        </mxCell>
        <mxCell id="ZOWS72K-DNHoaBLq7NLi-40" value="&lt;font style=&quot;font-size: 14px;&quot;&gt;Ok&lt;/font&gt;" style="labelPosition=center;verticalLabelPosition=middle;align=center;html=1;shape=mxgraph.basic.button;dx=10;whiteSpace=wrap;" parent="1" vertex="1">
          <mxGeometry x="211.5" y="845" width="50" height="50" as="geometry" />
        </mxCell>
        <mxCell id="ZOWS72K-DNHoaBLq7NLi-41" value="↩️" style="labelPosition=center;verticalLabelPosition=middle;align=center;html=1;shape=mxgraph.basic.button;dx=10;whiteSpace=wrap;" parent="1" vertex="1">
          <mxGeometry x="146.5" y="845" width="50" height="50" as="geometry" />
        </mxCell>
        <mxCell id="ZOWS72K-DNHoaBLq7NLi-42" value="" style="rounded=1;whiteSpace=wrap;html=1;" parent="1" vertex="1">
          <mxGeometry x="474" y="685" width="310" height="230" as="geometry" />
        </mxCell>
        <mxCell id="ZOWS72K-DNHoaBLq7NLi-43" value="&lt;font style=&quot;font-size: 18px;&quot;&gt;M5&lt;/font&gt;" style="text;html=1;align=center;verticalAlign=middle;resizable=0;points=[];autosize=1;strokeColor=none;fillColor=none;" parent="1" vertex="1">
          <mxGeometry x="599" y="645" width="50" height="40" as="geometry" />
        </mxCell>
        <mxCell id="ZOWS72K-DNHoaBLq7NLi-44" value="&lt;font style=&quot;font-size: 24px;&quot;&gt;Compila tutti i campi!&lt;/font&gt;" style="text;html=1;align=center;verticalAlign=middle;whiteSpace=wrap;rounded=0;" parent="1" vertex="1">
          <mxGeometry x="489" y="715" width="280" height="100" as="geometry" />
        </mxCell>
        <mxCell id="ZOWS72K-DNHoaBLq7NLi-45" value="&lt;font style=&quot;font-size: 18px;&quot;&gt;Ok&lt;/font&gt;" style="labelPosition=center;verticalLabelPosition=middle;align=center;html=1;shape=mxgraph.basic.button;dx=10;whiteSpace=wrap;" parent="1" vertex="1">
          <mxGeometry x="571.5" y="825" width="115" height="60" as="geometry" />
        </mxCell>
        <mxCell id="ZOWS72K-DNHoaBLq7NLi-46" value="" style="rounded=1;whiteSpace=wrap;html=1;" parent="1" vertex="1">
          <mxGeometry x="46" y="980" width="310" height="230" as="geometry" />
        </mxCell>
        <mxCell id="ZOWS72K-DNHoaBLq7NLi-47" value="&lt;font style=&quot;font-size: 18px;&quot;&gt;M6&lt;/font&gt;" style="text;html=1;align=center;verticalAlign=middle;resizable=0;points=[];autosize=1;strokeColor=none;fillColor=none;" parent="1" vertex="1">
          <mxGeometry x="171" y="940" width="50" height="40" as="geometry" />
        </mxCell>
        <mxCell id="ZOWS72K-DNHoaBLq7NLi-48" value="&lt;font style=&quot;font-size: 24px;&quot;&gt;Seleziona un&#39;opzione o annulla!&lt;/font&gt;" style="text;html=1;align=center;verticalAlign=middle;whiteSpace=wrap;rounded=0;" parent="1" vertex="1">
          <mxGeometry x="61" y="1010" width="280" height="100" as="geometry" />
        </mxCell>
        <mxCell id="ZOWS72K-DNHoaBLq7NLi-49" value="&lt;font style=&quot;font-size: 18px;&quot;&gt;Ok&lt;/font&gt;" style="labelPosition=center;verticalLabelPosition=middle;align=center;html=1;shape=mxgraph.basic.button;dx=10;whiteSpace=wrap;" parent="1" vertex="1">
          <mxGeometry x="143.5" y="1120" width="115" height="60" as="geometry" />
        </mxCell>
        <mxCell id="ZOWS72K-DNHoaBLq7NLi-50" value="" style="rounded=1;whiteSpace=wrap;html=1;" parent="1" vertex="1">
          <mxGeometry x="471" y="980" width="310" height="230" as="geometry" />
        </mxCell>
        <mxCell id="ZOWS72K-DNHoaBLq7NLi-51" value="&lt;font style=&quot;font-size: 18px;&quot;&gt;M7&lt;/font&gt;" style="text;html=1;align=center;verticalAlign=middle;resizable=0;points=[];autosize=1;strokeColor=none;fillColor=none;" parent="1" vertex="1">
          <mxGeometry x="596" y="940" width="50" height="40" as="geometry" />
        </mxCell>
        <mxCell id="ZOWS72K-DNHoaBLq7NLi-52" value="&lt;font style=&quot;font-size: 24px;&quot;&gt;Seleziona un&#39;immagine o annulla!&lt;/font&gt;" style="text;html=1;align=center;verticalAlign=middle;whiteSpace=wrap;rounded=0;" parent="1" vertex="1">
          <mxGeometry x="486" y="1010" width="280" height="100" as="geometry" />
        </mxCell>
        <mxCell id="ZOWS72K-DNHoaBLq7NLi-53" value="&lt;font style=&quot;font-size: 18px;&quot;&gt;Ok&lt;/font&gt;" style="labelPosition=center;verticalLabelPosition=middle;align=center;html=1;shape=mxgraph.basic.button;dx=10;whiteSpace=wrap;" parent="1" vertex="1">
          <mxGeometry x="568.5" y="1120" width="115" height="60" as="geometry" />
        </mxCell>
        <mxCell id="ZOWS72K-DNHoaBLq7NLi-54" value="" style="rounded=1;whiteSpace=wrap;html=1;" parent="1" vertex="1">
          <mxGeometry x="46" y="1300" width="310" height="230" as="geometry" />
        </mxCell>
        <mxCell id="ZOWS72K-DNHoaBLq7NLi-55" value="&lt;font style=&quot;font-size: 18px;&quot;&gt;M8&lt;/font&gt;" style="text;html=1;align=center;verticalAlign=middle;resizable=0;points=[];autosize=1;strokeColor=none;fillColor=none;" parent="1" vertex="1">
          <mxGeometry x="171" y="1260" width="50" height="40" as="geometry" />
        </mxCell>
        <mxCell id="ZOWS72K-DNHoaBLq7NLi-56" value="&lt;font style=&quot;font-size: 18px;&quot;&gt;La dimensione è superiore al limite! (100Mb)&lt;/font&gt;" style="text;html=1;align=center;verticalAlign=middle;whiteSpace=wrap;rounded=0;" parent="1" vertex="1">
          <mxGeometry x="61" y="1320" width="280" height="80" as="geometry" />
        </mxCell>
        <mxCell id="ZOWS72K-DNHoaBLq7NLi-57" value="&lt;font style=&quot;font-size: 18px;&quot;&gt;Ok&lt;/font&gt;" style="labelPosition=center;verticalLabelPosition=middle;align=center;html=1;shape=mxgraph.basic.button;dx=10;whiteSpace=wrap;" parent="1" vertex="1">
          <mxGeometry x="143.5" y="1440" width="115" height="60" as="geometry" />
        </mxCell>
        <mxCell id="ZOWS72K-DNHoaBLq7NLi-58" value="&lt;font style=&quot;font-size: 18px;&quot;&gt;Riprova&lt;/font&gt;" style="text;html=1;align=center;verticalAlign=middle;whiteSpace=wrap;rounded=0;" parent="1" vertex="1">
          <mxGeometry x="171" y="1390" width="60" height="30" as="geometry" />
        </mxCell>
        <mxCell id="ZOWS72K-DNHoaBLq7NLi-59" value="" style="rounded=1;whiteSpace=wrap;html=1;" parent="1" vertex="1">
          <mxGeometry x="471" y="1300" width="310" height="230" as="geometry" />
        </mxCell>
        <mxCell id="ZOWS72K-DNHoaBLq7NLi-60" value="&lt;font style=&quot;font-size: 18px;&quot;&gt;M9&lt;/font&gt;" style="text;html=1;align=center;verticalAlign=middle;resizable=0;points=[];autosize=1;strokeColor=none;fillColor=none;" parent="1" vertex="1">
          <mxGeometry x="596" y="1260" width="50" height="40" as="geometry" />
        </mxCell>
        <mxCell id="ZOWS72K-DNHoaBLq7NLi-61" value="&lt;font style=&quot;font-size: 18px;&quot;&gt;Questo formato non è supportato! (.png, .jpg, .jpeg)&lt;/font&gt;" style="text;html=1;align=center;verticalAlign=middle;whiteSpace=wrap;rounded=0;" parent="1" vertex="1">
          <mxGeometry x="486" y="1320" width="280" height="80" as="geometry" />
        </mxCell>
        <mxCell id="ZOWS72K-DNHoaBLq7NLi-62" value="&lt;font style=&quot;font-size: 18px;&quot;&gt;Ok&lt;/font&gt;" style="labelPosition=center;verticalLabelPosition=middle;align=center;html=1;shape=mxgraph.basic.button;dx=10;whiteSpace=wrap;" parent="1" vertex="1">
          <mxGeometry x="568.5" y="1440" width="115" height="60" as="geometry" />
        </mxCell>
        <mxCell id="ZOWS72K-DNHoaBLq7NLi-63" value="&lt;font style=&quot;font-size: 18px;&quot;&gt;Riprova&lt;/font&gt;" style="text;html=1;align=center;verticalAlign=middle;whiteSpace=wrap;rounded=0;" parent="1" vertex="1">
          <mxGeometry x="596" y="1390" width="60" height="30" as="geometry" />
        </mxCell>
      </root>
    </mxGraphModel>
  </diagram>
</mxfile>
